# xmcd CD database file
#
# Track frame offsets:
#	150
#	14478
#	26546
#	39874
#	54181
#	67805
#	78856
#	94808
#	107996
#	122814
#	136059
#	150873
#	164175
#	177429
#	191439
#	205508
#	221006
#	233440
#	242772
#	257781
#	273336
#	286727
#	300242
#	312001
#
# Disc length: 4324 seconds
#
# Revision: 0
# Processed by: cddbd v1.5.2PL0 Copyright (c) Steve Scherf et al.
# Submitted via: CDex 1.72
#
DISCID=3110e218
DTITLE=HILDEGARDE - ISN'T IT ROMANTIC
DYEAR=2009
DGENRE=Jazz
TTITLE0=WHEN I'M WITH YOU
TTITLE1=I WAS IN THE MOOD
TTITLE2=HONEY COLORED MOON
TTITLE3=BUT WHERE ARE YOU
TTITLE4=THE TOUCH OF YOUR LIPS
TTITLE5=SWING MISTER CHARLIE
TTITLE6=THE SCENE CHANGES
TTITLE7=PRACTICING THE PIAN
TTITLE8=I'VE GOT MY LOVE TO KEEP ME WARM
TTITLE9=TEN PRETTY GIRLS
TTITLE10=SO RARE
TTITLE11=I'M FEELIN' LIKE A MILLION
TTITLE12=LET'S TRY AGAIN
TTITLE13=IS'T IS ROMANTIC
TTITLE14=WITH A SONG IN MY HEART
TTITLE15=APRIL IN PARIS
TTITLE16=WHY DO I LOVE YOU
TTITLE17=I SAID NO
TTITLE18=DARLING JE VOUS AIME BEAUCOUP
TTITLE19=EVERYTHING I LOVE
TTITLE20=LILI MARLENE
TTITLE21=JUNE IS BUSTIN' OUT ALL OVER
TTITLE22=I'M GOING TO SEE YOU TODAY
TTITLE23=I'LL SEE YOU AGAIN
EXTD=YEAR: 2009
EXTT0=
EXTT1=
EXTT2=
EXTT3=
EXTT4=
EXTT5=
EXTT6=
EXTT7=
EXTT8=
EXTT9=
EXTT10=
EXTT11=
EXTT12=
EXTT13=
EXTT14=
EXTT15=
EXTT16=
EXTT17=
EXTT18=
EXTT19=
EXTT20=
EXTT21=
EXTT22=
EXTT23=
PLAYORDER=
